<?xml version="1.0" encoding="iso-8859-1"?>
<!-- Generator: Adobe Illustrator 25.0.0, SVG Export Plug-In . SVG Version: 6.00 Build 0)  -->
<svg version="1.1" baseProfile="basic" id="Layer_1"
	 xmlns="http://www.w3.org/2000/svg" xmlns:xlink="http://www.w3.org/1999/xlink" x="0px" y="0px" viewBox="0 0 64 64"
	 xml:space="preserve">
<path d="M36.594,39.459c0.241-0.235,0.635-0.23,0.87,0.011s0.23,0.634-0.011,0.87v-0.088c-1.564,1.176-3.478,1.777-5.436,1.695
	c-1.958,0.082-3.872-0.519-5.436-1.695c-0.208-0.252-0.17-0.629,0.082-0.837c0.219-0.18,0.531-0.18,0.755,0
	c1.323,0.968,2.937,1.46,4.577,1.384C33.635,40.886,35.254,40.416,36.594,39.459z"/>
<path d="M32,10c12.15,0,22,9.85,22,22s-9.85,22-22,22s-22-9.85-22-22S19.85,10,32,10z M44.895,34.926
	C46,34.373,46.694,33.236,46.672,32c-0.066-1.772-1.553-3.155-3.33-3.095c-0.787,0.027-1.537,0.35-2.105,0.891
	c-2.505-1.706-5.447-2.641-8.471-2.707l1.427-6.863l4.708,0.99c0.131,1.209,1.214,2.083,2.423,1.952
	c1.208-0.131,2.083-1.214,1.952-2.423c-0.131-1.208-1.214-2.083-2.423-1.952c-0.694,0.071-1.318,0.476-1.662,1.077l-5.392-1.077
	c-0.366-0.082-0.733,0.148-0.815,0.52c0,0.005,0,0.005,0,0.011l-1.624,7.634c-3.062,0.049-6.043,0.99-8.58,2.707
	c-1.291-1.214-3.325-1.154-4.539,0.142c-1.214,1.291-1.154,3.325,0.142,4.539c0.251,0.235,0.541,0.438,0.864,0.58
	c-0.022,0.323-0.022,0.645,0,0.968c0,4.927,5.742,8.936,12.824,8.936s12.824-4.003,12.824-8.936
	C44.917,35.571,44.917,35.248,44.895,34.926z"/>
<path d="M26.873,32c1.215,0,2.201,0.985,2.201,2.201c0,1.215-0.985,2.201-2.201,2.201c-1.215,0-2.201-0.985-2.201-2.201
	C24.672,32.985,25.657,32,26.873,32z"/>
<path d="M37.063,32c1.215,0,2.201,0.985,2.201,2.201c0,1.215-0.985,2.201-2.201,2.201c-1.215,0-2.201-0.985-2.201-2.201
	C34.863,32.985,35.848,32,37.063,32z"/>
</svg>